# xmcd
#
# Track frame offsets: 
#        150
#        13812
#        23231
#        35816
#        45886
#        56874
#        66704
#        76638
#        88752
#        98089
#        112099
#        123298
#        138698
#        154059
#        169117
#
# Disc length: 2428 seconds
#
# Revision: 0
# Processed by: cddbd v1.5.1PL0 Copyright (c) Steve Scherf et al.
# Submitted via: ExactAudioCopy v0.95a5
#
DISCID=cc097a0f
DTITLE=George Beverly Shea - How Sweet the Sound CD 1
DYEAR=2004
DGENRE=Gospel
TTITLE0=Welcome, Welcome
TTITLE1=I Will Song the Wondrous Story
TTITLE2=Then Jesus Came
TTITLE3=In Tenderness He Sought Me
TTITLE4=The Wonder of It All
TTITLE5=In the Garden
TTITLE6=Blessed Assurance
TTITLE7=Jesus Whispers Peace
TTITLE8=Have Thine Own Way
TTITLE9=The Old Rugged Cross
TTITLE10=The Ninety and Nine
TTITLE11=The Holy City
TTITLE12=Abide With Me
TTITLE13=How Great Thou Art
TTITLE14=I'd Rather Have Jesus
EXTD=
EXTT0=
EXTT1=
EXTT2=
EXTT3=
EXTT4=
EXTT5=
EXTT6=
EXTT7=
EXTT8=
EXTT9=
EXTT10=
EXTT11=
EXTT12=
EXTT13=
EXTT14=
PLAYORDER=
